<?xml version="1.0" encoding="utf-8"?>
<!-- Generator: Adobe Illustrator 16.0.0, SVG Export Plug-In . SVG Version: 6.00 Build 0)  -->
<!DOCTYPE svg PUBLIC "-//W3C//DTD SVG 1.1//EN" "http://www.w3.org/Graphics/SVG/1.1/DTD/svg11.dtd">
<svg version="1.1" xmlns="http://www.w3.org/2000/svg" xmlns:xlink="http://www.w3.org/1999/xlink" x="0px" y="0px" width="50px"
	 height="50px" viewBox="0 0 50 50" enable-background="new 0 0 50 50" xml:space="preserve">
<g id="Instagram">
	<path fill="#FFFFFF" d="M43.693,0H6.306C2.824,0,0,2.798,0,6.25v37.499C0,47.203,2.824,50,6.306,50h37.388
		C47.176,50,50,47.203,50,43.749V6.25C50,2.798,47.176,0,43.693,0z M35.286,25c0,5.621-4.616,10.195-10.287,10.195
		c-5.672,0-10.288-4.574-10.288-10.195c0-1.69,0.425-3.282,1.162-4.688c1.716-3.268,5.16-5.508,9.126-5.508s7.411,2.24,9.126,5.508
		C34.862,21.718,35.286,23.31,35.286,25z M44.369,41.858c0,1.414-1.158,2.562-2.585,2.562H8.44c-1.427,0-2.585-1.147-2.585-2.562
		V20.312h4.264C9.646,21.792,9.383,23.366,9.383,25c0,8.533,7.006,15.476,15.616,15.476c8.609,0,15.616-6.942,15.616-15.476
		c0-1.634-0.263-3.208-0.736-4.688h4.49V41.858z M44.369,12.246c0,1.415-1.158,2.562-2.585,2.562h-3.915
		c-1.428,0-2.583-1.147-2.583-2.562V8.012c0-1.124,0.733-2.068,1.746-2.414h4.752c1.427,0,2.585,1.147,2.585,2.562V12.246z"/>
</g>
<g id="Twitter">
</g>
<g id="Facebook">
</g>
</svg>
