<?xml version="1.0" encoding="utf-8"?>
<!-- Generator: Adobe Illustrator 16.0.0, SVG Export Plug-In . SVG Version: 6.00 Build 0)  -->
<!DOCTYPE svg PUBLIC "-//W3C//DTD SVG 1.1//EN" "http://www.w3.org/Graphics/SVG/1.1/DTD/svg11.dtd">
<svg version="1.1" id="Layer_1" xmlns="http://www.w3.org/2000/svg" xmlns:xlink="http://www.w3.org/1999/xlink" x="0px" y="0px"
	 width="30px" height="30px" viewBox="0 0 30 30" enable-background="new 0 0 30 30" xml:space="preserve">
<path fill="#777777" d="M1.5,16.5h23.378l-7.939,7.939c-0.586,0.586-0.586,1.535,0,2.121s1.535,0.586,2.121,0l10.5-10.5
	c0.586-0.585,0.586-1.536,0-2.121l-10.5-10.5C18.768,3.146,18.385,3,18,3c-0.383,0-0.768,0.146-1.061,0.439
	c-0.586,0.585-0.586,1.535,0,2.121l7.939,7.94H1.5C0.671,13.5,0,14.172,0,15S0.671,16.5,1.5,16.5z"/>
</svg>
