<?xml version="1.0" encoding="utf-8"?>
<!-- Generator: Adobe Illustrator 16.0.0, SVG Export Plug-In . SVG Version: 6.00 Build 0)  -->
<!DOCTYPE svg PUBLIC "-//W3C//DTD SVG 1.1//EN" "http://www.w3.org/Graphics/SVG/1.1/DTD/svg11.dtd">
<svg version="1.1" id="Layer_1" xmlns="http://www.w3.org/2000/svg" xmlns:xlink="http://www.w3.org/1999/xlink" x="0px" y="0px"
	 width="30px" height="30px" viewBox="0 0 30 30" enable-background="new 0 0 30 30" xml:space="preserve">
<g>
	<path fill="#CCCCCC" d="M21.6,28.275C19.227,29.532,16.814,30,13.927,30C6.854,30,0.863,24.833,0.863,16.554
		C0.863,7.672,7.026,0,16.596,0C24.095,0,29.138,5.26,29.138,12.46c0,6.464-3.618,10.257-7.669,10.257
		c-1.722,0-3.319-1.159-3.189-3.793h-0.174c-1.51,2.548-3.488,3.793-6.078,3.793c-2.5,0-4.654-2.024-4.654-5.43
		c0-5.347,4.225-10.216,10.213-10.216c1.857,0,3.49,0.386,4.616,0.905l-1.469,7.801c-0.646,3.279-0.128,4.785,1.297,4.831
		c2.197,0.042,4.653-2.889,4.653-7.892c0-6.249-3.746-10.73-10.431-10.73c-7.03,0-12.936,5.556-12.936,14.31
		c0,7.198,4.703,11.639,11.079,11.639c2.46,0,4.743-0.514,6.508-1.509L21.6,28.275z M19.227,9.656c-0.433-0.129-1.165-0.3-2.154-0.3
		c-3.794,0-6.854,3.578-6.854,7.757c0,1.896,0.949,3.273,2.845,3.273c2.5,0,4.786-3.188,5.258-5.857L19.227,9.656z"/>
</g>
</svg>
