<?xml version="1.0" encoding="utf-8"?>
<!-- Generator: Adobe Illustrator 16.0.0, SVG Export Plug-In . SVG Version: 6.00 Build 0)  -->
<!DOCTYPE svg PUBLIC "-//W3C//DTD SVG 1.1//EN" "http://www.w3.org/Graphics/SVG/1.1/DTD/svg11.dtd">
<svg version="1.1" id="Layer_1" xmlns="http://www.w3.org/2000/svg" xmlns:xlink="http://www.w3.org/1999/xlink" x="0px" y="0px"
	 width="40px" height="40px" viewBox="0 0 40 40" enable-background="new 0 0 40 40" xml:space="preserve">
<path fill="#FFFFFF" d="M20,0C8.955,0,0,8.955,0,20c0,11.045,8.955,20,20,20s20-8.955,20-20C40,8.955,31.045,0,20,0z M20,36.363
	c-9.037,0-16.364-7.326-16.364-16.363S10.963,3.636,20,3.636S36.363,10.963,36.363,20S29.037,36.363,20,36.363z M24.83,15.077
	l-6.428,6.429l-2.571-2.571c-0.71-0.71-1.86-0.71-2.571,0c-0.71,0.709-0.71,1.861,0,2.571l3.857,3.855
	c0.709,0.711,1.861,0.711,2.571,0l7.715-7.713c0.709-0.71,0.71-1.86,0-2.571C26.692,14.368,25.541,14.368,24.83,15.077z"/>
</svg>
