<?xml version="1.0" encoding="utf-8"?>
<!-- Generator: Adobe Illustrator 16.0.0, SVG Export Plug-In . SVG Version: 6.00 Build 0)  -->
<!DOCTYPE svg PUBLIC "-//W3C//DTD SVG 1.1//EN" "http://www.w3.org/Graphics/SVG/1.1/DTD/svg11.dtd">
<svg version="1.1" id="Layer_1" xmlns="http://www.w3.org/2000/svg" xmlns:xlink="http://www.w3.org/1999/xlink" x="0px" y="0px"
	 width="30px" height="30px" viewBox="0 0 30 30" enable-background="new 0 0 30 30" xml:space="preserve">
<path fill="#777777" d="M24.354,3.442c0.589,0.588,0.589,1.542,0,2.131l-9.482,9.483l9.482,9.482c0.589,0.589,0.589,1.543,0,2.131
	c-0.588,0.588-1.543,0.588-2.131,0L11.675,16.12c-0.589-0.588-0.589-1.542,0-2.13L22.223,3.442C22.518,3.147,22.903,3,23.288,3
	C23.674,3,24.059,3.147,24.354,3.442z M6.712,3C5.881,3,5.206,3.675,5.206,4.507v21.096c0,0.832,0.675,1.507,1.506,1.507
	c0.833,0,1.507-0.675,1.507-1.507V4.507C8.22,3.675,7.545,3,6.712,3z"/>
</svg>
