<?xml version="1.0" encoding="utf-8"?>
<!-- Generator: Adobe Illustrator 16.0.0, SVG Export Plug-In . SVG Version: 6.00 Build 0)  -->
<!DOCTYPE svg PUBLIC "-//W3C//DTD SVG 1.1//EN" "http://www.w3.org/Graphics/SVG/1.1/DTD/svg11.dtd">
<svg version="1.1" id="Layer_1" xmlns="http://www.w3.org/2000/svg" xmlns:xlink="http://www.w3.org/1999/xlink" x="0px" y="0px"
	 width="30px" height="30px" viewBox="0 0 30 30" enable-background="new 0 0 30 30" xml:space="preserve">
<path fill="#777777" d="M26.25,18.75c2.071,0,3.75-1.679,3.75-3.75s-1.679-3.75-3.75-3.75h-0.641
	c-0.133-0.375-0.284-0.743-0.456-1.1l0.453-0.453c1.464-1.465,1.464-3.839,0-5.304c-1.465-1.464-3.839-1.464-5.304,0l-0.452,0.454
	c-0.357-0.171-0.725-0.324-1.101-0.456V3.75C18.75,1.679,17.071,0,15,0s-3.75,1.679-3.75,3.75v0.641
	c-0.375,0.132-0.743,0.285-1.1,0.456L9.697,4.393c-1.465-1.464-3.839-1.464-5.304,0c-1.464,1.464-1.464,3.839,0,5.304l0.454,0.453
	c-0.171,0.357-0.324,0.725-0.456,1.1H3.75C1.679,11.25,0,12.929,0,15s1.679,3.75,3.75,3.75h0.641
	c0.132,0.376,0.285,0.743,0.456,1.101l-0.454,0.452c-1.464,1.465-1.464,3.839,0,5.304c1.464,1.464,3.839,1.464,5.304,0l0.453-0.453
	c0.357,0.172,0.725,0.323,1.1,0.456v0.641c0,2.071,1.679,3.75,3.75,3.75s3.75-1.679,3.75-3.75v-0.641
	c0.376-0.133,0.743-0.284,1.101-0.456l0.452,0.453c1.465,1.464,3.839,1.464,5.304,0c1.464-1.465,1.464-3.839,0-5.304l-0.453-0.452
	c0.172-0.357,0.323-0.725,0.456-1.101H26.25z M23.662,16.25c-0.212,1.482-0.797,2.846-1.654,3.991l1.781,1.781l0.051,0.049
	c0.487,0.488,0.487,1.28,0,1.769c-0.488,0.487-1.28,0.487-1.769,0l-0.049-0.051l-1.781-1.781c-1.146,0.857-2.509,1.442-3.99,1.654
	v2.588c0,0.69-0.562,1.25-1.251,1.25c-0.69,0-1.25-0.56-1.25-1.25v-2.588c-1.482-0.212-2.845-0.797-3.991-1.654l-1.781,1.781
	L7.929,23.84c-0.487,0.487-1.28,0.487-1.768,0c-0.488-0.488-0.488-1.28,0-1.769l0.049-0.049l1.782-1.781
	c-0.858-1.146-1.441-2.509-1.654-3.991H3.75c-0.69,0-1.25-0.56-1.25-1.25s0.56-1.25,1.25-1.25h2.588
	c0.213-1.482,0.796-2.845,1.654-3.991L6.21,7.978L6.161,7.929c-0.488-0.487-0.488-1.28,0-1.768c0.488-0.488,1.28-0.488,1.768,0
	L7.978,6.21l1.781,1.782c1.146-0.858,2.508-1.441,3.991-1.654V3.75c0-0.69,0.56-1.25,1.25-1.25c0.689,0,1.251,0.56,1.251,1.25v2.588
	c1.481,0.213,2.845,0.796,3.99,1.654l1.781-1.782l0.049-0.049c0.488-0.488,1.28-0.488,1.769,0c0.487,0.488,0.487,1.28,0,1.768
	l-0.051,0.049l-1.781,1.781c0.857,1.146,1.442,2.508,1.654,3.991h2.588c0.69,0,1.25,0.56,1.25,1.25s-0.56,1.25-1.25,1.25H23.662z
	 M15,10c-2.761,0-5,2.239-5,5c0,2.762,2.239,5,5,5c2.762,0,5-2.238,5-5C20,12.239,17.762,10,15,10z M15,17.5
	c-1.381,0-2.5-1.119-2.5-2.5s1.119-2.5,2.5-2.5s2.499,1.119,2.499,2.5S16.381,17.5,15,17.5z"/>
</svg>
