<?xml version="1.0" encoding="utf-8"?>
<!-- Generator: Adobe Illustrator 16.0.0, SVG Export Plug-In . SVG Version: 6.00 Build 0)  -->
<!DOCTYPE svg PUBLIC "-//W3C//DTD SVG 1.1//EN" "http://www.w3.org/Graphics/SVG/1.1/DTD/svg11.dtd">
<svg version="1.1" id="Layer_1" xmlns="http://www.w3.org/2000/svg" xmlns:xlink="http://www.w3.org/1999/xlink" x="0px" y="0px"
	 width="30px" height="30px" viewBox="0 0 30 30" enable-background="new 0 0 30 30" xml:space="preserve">
<path fill="#CCCCCC" d="M28.501,13.5H5.122l7.939-7.939c0.585-0.586,0.585-1.535-0.001-2.121c-0.585-0.586-1.535-0.586-2.121,0
	l-10.5,10.5c-0.585,0.586-0.585,1.536,0,2.121l10.5,10.5C11.232,26.854,11.616,27,12,27c0.385,0,0.769-0.146,1.062-0.439
	c0.585-0.586,0.585-1.535-0.001-2.121L5.122,16.5h23.379C29.327,16.5,30,15.828,30,15S29.327,13.5,28.501,13.5z"/>
</svg>
