<?xml version="1.0" encoding="utf-8"?>
<!-- Generator: Adobe Illustrator 16.0.0, SVG Export Plug-In . SVG Version: 6.00 Build 0)  -->
<!DOCTYPE svg PUBLIC "-//W3C//DTD SVG 1.1//EN" "http://www.w3.org/Graphics/SVG/1.1/DTD/svg11.dtd">
<svg version="1.1" xmlns="http://www.w3.org/2000/svg" xmlns:xlink="http://www.w3.org/1999/xlink" x="0px" y="0px" width="50px"
	 height="50px" viewBox="0 0 50 50" enable-background="new 0 0 50 50" xml:space="preserve">
<g id="Instagram">
</g>
<g id="Twitter">
</g>
<g id="Facebook">
	<path fill="#FFFFFF" d="M43.442,0H6.558C2.935,0,0,3.059,0,6.838v36.324C0,46.94,2.935,50,6.558,50h19.105l0.042-22.038H21.44
		l0.005-6.341l4.258-0.017l0.004-4.959c0,0-0.102-3.467,1.075-5.417c1.161-1.899,2.754-2.666,3.181-2.874
		c0.422-0.198,1.498-0.676,3.297-0.722c1.786-0.038,6.118,0.092,8.008,0.805l-1.108,6.504c0,0-3.539-1.172-5.282-0.167
		c0,0-1.227,0.572-1.235,1.804l-0.014,5.027l6.801,0.015l-0.458,6.341h-6.343V50h9.813C47.065,50,50,46.94,50,43.162V6.838
		C50,3.059,47.065,0,43.442,0z"/>
</g>
</svg>
