<?xml version="1.0" encoding="utf-8"?>
<!-- Generator: Adobe Illustrator 16.0.0, SVG Export Plug-In . SVG Version: 6.00 Build 0)  -->
<!DOCTYPE svg PUBLIC "-//W3C//DTD SVG 1.1//EN" "http://www.w3.org/Graphics/SVG/1.1/DTD/svg11.dtd">
<svg version="1.1" xmlns="http://www.w3.org/2000/svg" xmlns:xlink="http://www.w3.org/1999/xlink" x="0px" y="0px" width="50px"
	 height="50px" viewBox="0 0 50 50" enable-background="new 0 0 50 50" xml:space="preserve">
<g id="Instagram">
</g>
<g id="Twitter">
	<path fill="#FFFFFF" d="M50,9.494c-1.842,0.814-3.815,1.367-5.895,1.614c2.123-1.269,3.747-3.278,4.516-5.673
		c-1.986,1.175-4.181,2.028-6.52,2.489c-1.869-1.995-4.538-3.241-7.484-3.241c-5.665,0-10.257,4.592-10.257,10.257
		c0,0.805,0.091,1.587,0.261,2.339c-8.521-0.43-16.08-4.512-21.144-10.718c-0.882,1.515-1.385,3.276-1.385,5.156
		c0,3.56,1.811,6.697,4.56,8.54c-1.678-0.053-3.265-0.518-4.645-1.284c-0.001,0.044-0.001,0.086-0.001,0.129
		c0,4.971,3.541,9.117,8.233,10.056c-0.865,0.236-1.774,0.365-2.709,0.365c-0.656,0-1.298-0.07-1.926-0.186
		c1.309,4.07,5.091,7.039,9.581,7.125c-3.512,2.748-7.93,4.393-12.74,4.393c-0.829,0-1.647-0.049-2.446-0.145
		c4.54,2.904,9.928,4.605,15.724,4.605c18.865,0,29.189-15.631,29.189-29.186c0-0.443-0.009-0.886-0.033-1.325
		C46.883,13.356,48.626,11.549,50,9.494z"/>
</g>
<g id="Facebook">
</g>
</svg>
