<?xml version="1.0" encoding="utf-8"?>
<!-- Generator: Adobe Illustrator 16.0.0, SVG Export Plug-In . SVG Version: 6.00 Build 0)  -->
<!DOCTYPE svg PUBLIC "-//W3C//DTD SVG 1.1//EN" "http://www.w3.org/Graphics/SVG/1.1/DTD/svg11.dtd">
<svg version="1.1" id="Layer_1" xmlns="http://www.w3.org/2000/svg" xmlns:xlink="http://www.w3.org/1999/xlink" x="0px" y="0px"
	 width="30px" height="30px" viewBox="0 0 30 30" enable-background="new 0 0 30 30" xml:space="preserve">
<path fill="#CCCCCC" d="M30,4.09v8.182c0,0.753-0.61,1.364-1.363,1.364h-8.182c-0.754,0-1.364-0.611-1.364-1.364
	s0.61-1.364,1.364-1.364h4.598c-1.85-1.803-3.307-3.227-3.702-3.623c-1.042-1.042-2.256-1.849-3.608-2.397
	c-1.307-0.53-2.688-0.799-4.106-0.799S10.837,4.359,9.53,4.889C8.178,5.438,6.964,6.244,5.922,7.286
	C4.88,8.328,4.074,9.542,3.526,10.894C2.996,12.201,2.727,13.582,2.727,15s0.269,2.799,0.799,4.106
	c0.548,1.353,1.354,2.566,2.396,3.607c1.042,1.043,2.256,1.849,3.608,2.396c1.307,0.531,2.688,0.799,4.106,0.799
	s2.799-0.268,4.106-0.799c1.353-0.548,2.566-1.354,3.608-2.396c0.585-0.585,1.103-1.233,1.537-1.928
	c0.423-0.674,0.771-1.396,1.036-2.148c0.251-0.71,1.029-1.082,1.74-0.832c0.71,0.25,1.082,1.029,0.832,1.739
	c-0.332,0.94-0.768,1.846-1.297,2.69c-0.545,0.867-1.19,1.678-1.92,2.408c-1.302,1.301-2.82,2.309-4.512,2.994
	c-0.814,0.33-1.664,0.582-2.527,0.75c-0.855,0.166-1.731,0.25-2.604,0.25c-0.872,0-1.748-0.084-2.604-0.25
	c-0.863-0.168-1.714-0.42-2.527-0.75c-1.693-0.686-3.21-1.693-4.512-2.994c-1.301-1.302-2.309-2.82-2.996-4.512
	c-0.33-0.814-0.582-1.664-0.749-2.527C0.084,16.748,0,15.872,0,15c0-0.872,0.084-1.748,0.25-2.604
	c0.167-0.863,0.419-1.714,0.749-2.527c0.687-1.693,1.694-3.21,2.996-4.512s2.819-2.309,4.512-2.996
	c0.813-0.33,1.664-0.582,2.527-0.749c0.855-0.166,1.731-0.25,2.604-0.25c0.873,0,1.749,0.084,2.604,0.25
	c0.863,0.167,1.713,0.419,2.527,0.749c1.691,0.687,3.21,1.694,4.512,2.996c0.406,0.407,2.002,1.965,3.994,3.906V4.09
	c0-0.753,0.609-1.363,1.363-1.363C29.39,2.727,30,3.337,30,4.09z"/>
</svg>
